<svg width="198" height="43" viewBox="0 0 198 43" fill="none" xmlns="http://www.w3.org/2000/svg">
<path d="M152.689 29.8823C152.33 29.4604 152.041 28.9526 151.822 28.3589C151.619 27.7651 151.517 26.8745 151.517 25.687V18.4919H149.596V15.82H151.564V12.3045H155.291V15.82H157.564V18.4919H155.291V25.2886C155.291 26.523 155.431 27.4683 155.713 28.1245C155.994 28.7807 156.33 29.3198 156.72 29.7417V29.8823H152.689Z" fill="black"/>
<path d="M134.645 29.8823V29.7417L138.91 22.5699L135.09 15.9607V15.82H139.238L141.488 20.0387H142.051L144.207 15.82H148.027V15.9607L144.441 22.4762L148.613 29.7417V29.8823H144.394L141.723 24.9605H141.16L138.582 29.8823H134.645Z" fill="black"/>
<path d="M127.204 30.2338C124.985 30.2338 123.29 29.5698 122.118 28.2416C120.962 26.9135 120.384 25.1089 120.384 22.8277C120.384 21.2965 120.642 19.984 121.157 18.8903C121.688 17.7965 122.454 16.9528 123.454 16.3591C124.47 15.7653 125.704 15.4684 127.157 15.4684C129.251 15.4684 130.852 16.1012 131.962 17.3668C133.087 18.6324 133.649 20.4918 133.649 22.9449V23.7417H124.087C124.165 24.9292 124.47 25.8667 125.001 26.5542C125.548 27.226 126.282 27.562 127.204 27.562C127.938 27.562 128.524 27.3432 128.962 26.9057C129.415 26.4682 129.712 25.9604 129.852 25.3823H133.462C133.321 26.2417 133.009 27.0385 132.524 27.7729C132.04 28.5073 131.36 29.101 130.485 29.5541C129.61 30.0072 128.516 30.2338 127.204 30.2338ZM124.087 21.3512H129.946C129.884 20.2887 129.618 19.4684 129.149 18.8903C128.681 18.2965 128.009 17.9996 127.134 17.9996C126.274 17.9996 125.579 18.2809 125.048 18.8434C124.532 19.3902 124.212 20.2262 124.087 21.3512Z" fill="black"/>
<path d="M101.209 29.8823V11.6013H108.005L113.677 26.7886H114.24V11.6013H117.802V29.8823H110.958L105.31 14.695H104.771V29.8823H101.209Z" fill="black"/>
<path d="M90.1013 29.8823V15.82H93.5699V18.3981H94.1324C94.2262 17.9294 94.3981 17.4919 94.648 17.0856C94.9137 16.6638 95.3121 16.3278 95.8433 16.0778C96.3746 15.8122 97.0855 15.6794 97.9761 15.6794H98.7261V19.1012H97.6949C96.3668 19.1012 95.398 19.4372 94.7887 20.109C94.1949 20.7809 93.8981 21.7887 93.8981 23.1324V29.8823H90.1013Z" fill="black"/>
<path d="M81.2545 30.2338C79.0358 30.2338 77.3405 29.5698 76.1687 28.2416C75.0124 26.9135 74.4343 25.1089 74.4343 22.8277C74.4343 21.2965 74.6921 19.984 75.2077 18.8903C75.739 17.7965 76.5046 16.9528 77.5046 16.3591C78.5202 15.7653 79.7545 15.4684 81.2076 15.4684C83.3014 15.4684 84.9029 16.1012 86.0122 17.3668C87.1372 18.6324 87.6997 20.4918 87.6997 22.9449V23.7417H78.1374C78.2155 24.9292 78.5202 25.8667 79.0514 26.5542C79.5983 27.226 80.3327 27.562 81.2545 27.562C81.9889 27.562 82.5748 27.3432 83.0123 26.9057C83.4654 26.4682 83.7623 25.9604 83.9029 25.3823H87.5122C87.3716 26.2417 87.0591 27.0385 86.5747 27.7729C86.0904 28.5073 85.4107 29.101 84.5357 29.5541C83.6607 30.0072 82.567 30.2338 81.2545 30.2338ZM78.1374 21.3512H83.9967C83.9342 20.2887 83.6685 19.4684 83.1998 18.8903C82.731 18.2965 82.0592 17.9996 81.1842 17.9996C80.3248 17.9996 79.6295 18.2809 79.0983 18.8434C78.5827 19.3902 78.2624 20.2262 78.1374 21.3512Z" fill="black"/>
<path d="M63.8821 30.1635C62.6009 30.1635 61.5462 29.851 60.7181 29.2261C59.89 28.5854 59.2729 27.7105 58.8666 26.6011C58.4604 25.4917 58.2572 24.234 58.2572 22.8277C58.2572 21.3746 58.4604 20.1012 58.8666 19.0075C59.2885 17.9138 59.9135 17.0622 60.7416 16.4528C61.5853 15.8435 62.6322 15.5388 63.8821 15.5388C64.804 15.5388 65.554 15.7029 66.1321 16.031C66.7258 16.3591 67.1946 16.8044 67.5383 17.3669H68.1008V11.1326H71.8976V29.8823H68.3821V28.0542H67.8196C67.4915 28.6479 67.0149 29.1479 66.3899 29.5542C65.7649 29.9604 64.929 30.1635 63.8821 30.1635ZM64.9602 27.4917C65.9134 27.4917 66.6712 27.0777 67.2336 26.2495C67.8118 25.4058 68.1008 24.273 68.1008 22.8512C68.1008 21.4137 67.8118 20.2809 67.2336 19.4528C66.6712 18.6247 65.9134 18.2106 64.9602 18.2106C64.1009 18.2106 63.4212 18.6012 62.9212 19.3825C62.4369 20.1481 62.1947 21.3043 62.1947 22.8512C62.1947 24.398 62.4369 25.5621 62.9212 26.3433C63.4212 27.1089 64.1009 27.4917 64.9602 27.4917Z" fill="black"/>
<path d="M43.2648 29.8822V15.82H46.7804V17.9293H47.3429C47.6241 17.2262 48.0538 16.6403 48.6319 16.1716C49.2257 15.7028 50.0928 15.4684 51.2334 15.4684C52.7959 15.4684 53.9678 15.9606 54.749 16.945C55.5302 17.9293 55.9209 19.2653 55.9209 20.9527V29.8822H52.124V21.5855C52.124 20.6168 51.9522 19.8746 51.6084 19.359C51.2647 18.8278 50.7022 18.5621 49.921 18.5621C49.0147 18.5621 48.3116 18.9215 47.8116 19.6402C47.3116 20.3434 47.0616 21.2262 47.0616 22.2886V29.8822H43.2648Z" fill="black"/>
<path d="M31.8689 30.1635C30.5564 30.1635 29.4783 29.851 28.6346 29.226C27.7909 28.5854 27.1659 27.7104 26.7596 26.6011C26.3534 25.4917 26.1503 24.2339 26.1503 22.8277C26.1503 21.3746 26.3534 20.1012 26.7596 19.0075C27.1815 17.9137 27.8143 17.0622 28.658 16.4528C29.5018 15.8435 30.5643 15.5388 31.8455 15.5388C32.8298 15.5388 33.6345 15.7341 34.2595 16.1247C34.9001 16.4997 35.3845 17.0075 35.7126 17.6481H36.2751V15.82H39.7906V29.8823H36.2751V28.0542H35.7126C35.3845 28.6479 34.9079 29.1479 34.2829 29.5542C33.6579 29.9604 32.8533 30.1635 31.8689 30.1635ZM32.8533 27.4917C33.8064 27.4917 34.5642 27.0776 35.1267 26.2495C35.7048 25.4058 35.9938 24.273 35.9938 22.8512C35.9938 21.4137 35.7048 20.2809 35.1267 19.4528C34.5642 18.6247 33.8064 18.2106 32.8533 18.2106C31.9939 18.2106 31.3142 18.6012 30.8142 19.3825C30.3299 20.1481 30.0877 21.3043 30.0877 22.8512C30.0877 24.398 30.3299 25.562 30.8142 26.3433C31.3142 27.1089 31.9939 27.4917 32.8533 27.4917Z" fill="black"/>
<path d="M2.64839 29.8823L0 11.742V11.6013H3.84368L6.02333 26.7886H6.58582L9.21077 11.6013H15.7263L18.3747 26.7886H18.9372L21.0934 11.6013H24.7027V11.742L22.0543 29.8823H15.2575L12.6326 14.695H12.0701L9.44514 29.8823H2.64839Z" fill="black"/>
<mask id="mask0_40_2" style="mask-type:alpha" maskUnits="userSpaceOnUse" x="161" y="2" width="35" height="36">
<path d="M177.827 15.0824L189.146 18.1154L189.292 17.5721C188.964 17.2254 188.689 16.893 188.467 16.5747C188.265 16.2453 188.069 15.918 187.881 15.5926L186.556 13.2963L189.656 11.5065L195.655 21.8975L185.264 27.8967L183.474 24.7966L185.77 23.4708C186.096 23.283 186.427 23.1048 186.763 22.9361C187.118 22.7563 187.525 22.5983 187.982 22.462L188.127 21.9187L176.808 18.8857L177.827 15.0824Z" fill="url(#paint0_radial_40_2)"/>
<path d="M180.117 24.9691L171.831 33.2554L172.228 33.6531C172.692 33.5426 173.118 33.4708 173.504 33.4377C173.891 33.4266 174.272 33.4211 174.648 33.4211L177.3 33.4211L177.3 37.0008L165.301 37.0008L165.301 25.0022L168.881 25.0022V27.6539C168.881 28.0295 168.87 28.4051 168.848 28.7808C168.825 29.1785 168.759 29.6094 168.649 30.0734L169.046 30.4712L177.333 22.1849L180.117 24.9691Z" fill="url(#paint1_linear_40_2)"/>
<path d="M170.509 21.0426L167.476 9.72333L166.932 9.86892C166.796 10.326 166.646 10.7303 166.481 11.0818C166.297 11.4222 166.111 11.755 165.924 12.0803L164.598 14.3767L161.498 12.5869L167.497 2.19587L177.888 8.19512L176.098 11.2952L173.802 9.9694C173.476 9.78157 173.157 9.58418 172.842 9.37723C172.509 9.15922 172.169 8.88637 171.822 8.55867L171.279 8.70425L174.312 20.0235L170.509 21.0426Z" fill="url(#paint2_linear_40_2)"/>
</mask>
<g mask="url(#mask0_40_2)">
<circle cx="173.364" cy="19.3356" r="22.8511" fill="url(#paint3_radial_40_2)"/>
</g>
<defs>
<radialGradient id="paint0_radial_40_2" cx="0" cy="0" r="1" gradientTransform="matrix(25.0767 7.79865 -24.0151 118.334 185.859 18.1933)" gradientUnits="userSpaceOnUse">
  <stop stop-color="#CE2828"/><stop offset="0.14" stop-color="#F44C08"/><stop offset="0.30" stop-color="#ECA107"/>
  <stop offset="0.45" stop-color="#32B413"/><stop offset="0.57" stop-color="#1268E5"/>
  <stop offset="0.67" stop-color="#3C34C5"/><stop offset="0.78" stop-color="#601E96"/><stop offset="0.94" stop-color="#9D3874"/>
</radialGradient>
<linearGradient id="paint1_linear_40_2" x1="180.023" y1="24.8756" x2="168.176" y2="37.1959" gradientUnits="userSpaceOnUse">
  <stop stop-color="#CE2828"/><stop offset="0.14" stop-color="#F44C08"/><stop offset="0.30" stop-color="#ECA107"/>
  <stop offset="0.45" stop-color="#32B413"/><stop offset="0.57" stop-color="#1268E5"/>
  <stop offset="0.67" stop-color="#3C34C5"/><stop offset="0.78" stop-color="#601E96"/><stop offset="0.94" stop-color="#9D3874"/>
</linearGradient>
<linearGradient id="paint2_linear_40_2" x1="170.636" y1="21.0084" x2="165.89" y2="4.58796" gradientUnits="userSpaceOnUse">
  <stop stop-color="#CE2828"/><stop offset="0.14" stop-color="#F44C08"/><stop offset="0.30" stop-color="#ECA107"/>
  <stop offset="0.45" stop-color="#32B413"/><stop offset="0.57" stop-color="#1268E5"/>
  <stop offset="0.67" stop-color="#3C34C5"/><stop offset="0.78" stop-color="#601E96"/><stop offset="0.94" stop-color="#9D3874"/>
</linearGradient>
<radialGradient id="paint3_radial_40_2" cx="0" cy="0" r="1" gradientUnits="userSpaceOnUse" gradientTransform="translate(174.634 20.6051) rotate(19.6538) scale(18.8726 24.2331)">
  <stop stop-color="#CE2828"/><stop offset="0.14" stop-color="#F44C08"/><stop offset="0.30" stop-color="#ECA107"/>
  <stop offset="0.45" stop-color="#32B413"/><stop offset="0.57" stop-color="#1268E5"/>
  <stop offset="0.67" stop-color="#3C34C5"/><stop offset="0.78" stop-color="#601E96"/><stop offset="0.94" stop-color="#9D3874"/>
</radialGradient>
</defs>
</svg>
